<svg width="528" height="184" viewBox="0 0 528 184" fill="none" xmlns="http://www.w3.org/2000/svg">
  <defs>
    <linearGradient id="markBg" x1="21" y1="23" x2="151" y2="161" gradientUnits="userSpaceOnUse">
      <stop stop-color="#0F7CFF"/>
      <stop offset="0.52" stop-color="#18B8D8"/>
      <stop offset="1" stop-color="#0A4EA3"/>
    </linearGradient>
    <linearGradient id="depth" x1="48" y1="133" x2="138" y2="49" gradientUnits="userSpaceOnUse">
      <stop stop-color="#DDFBFF"/>
      <stop offset="0.45" stop-color="#FFFFFF"/>
      <stop offset="1" stop-color="#B6F2FF"/>
    </linearGradient>
    <linearGradient id="accent" x1="94" y1="42" x2="142" y2="105" gradientUnits="userSpaceOnUse">
      <stop stop-color="#FFE36A"/>
      <stop offset="1" stop-color="#FF8A35"/>
    </linearGradient>
    <linearGradient id="word" x1="183" y1="50" x2="507" y2="117" gradientUnits="userSpaceOnUse">
      <stop stop-color="#083B7A"/>
      <stop offset="0.6" stop-color="#0D68B6"/>
      <stop offset="1" stop-color="#10AFC7"/>
    </linearGradient>
    <filter id="softShadow" x="-20%" y="-20%" width="140%" height="140%" color-interpolation-filters="sRGB">
      <feDropShadow dx="0" dy="10" stdDeviation="12" flood-color="#0A4EA3" flood-opacity="0.18"/>
    </filter>
  </defs>

  <rect width="528" height="184" rx="34" fill="#FFFFFF"/>
  <rect x="8" y="8" width="512" height="168" rx="30" fill="#F3FAFF"/>

  <g filter="url(#softShadow)">
    <rect x="25" y="24" width="136" height="136" rx="33" fill="url(#markBg)"/>
    <path d="M59 57H104C132 57 149 73 149 94C149 121 127 141 95 141H54V119H93C111 119 124 110 124 96C124 84 114 78 98 78H59V57Z" fill="url(#depth)"/>
    <path d="M49 119L79 72H108L77 141H49V119Z" fill="url(#depth)" opacity="0.96"/>
    <path d="M63 102C84 91 111 85 142 86" stroke="#FFFFFF" stroke-opacity="0.55" stroke-width="5" stroke-linecap="round"/>
    <path d="M68 122C91 116 113 116 138 121" stroke="#FFFFFF" stroke-opacity="0.36" stroke-width="4" stroke-linecap="round"/>
    <path d="M127 37L133 53L149 59L133 65L127 81L121 65L105 59L121 53L127 37Z" fill="url(#accent)"/>
    <circle cx="53" cy="47" r="7" fill="#FFFFFF" fill-opacity="0.7"/>
  </g>

  <text x="184" y="87" fill="url(#word)" font-family="Avenir Next, PingFang SC, Microsoft YaHei, Arial, sans-serif" font-size="42" font-weight="900" letter-spacing="-0.5">
    DepthShop
  </text>
  <text x="425" y="87" fill="#0AAFC3" font-family="Avenir Next, PingFang SC, Microsoft YaHei, Arial, sans-serif" font-size="42" font-weight="900" letter-spacing="-0.5">
    AI
  </text>
  <text x="187" y="124" fill="#56708C" font-family="Avenir Next, PingFang SC, Microsoft YaHei, Arial, sans-serif" font-size="18" font-weight="700" letter-spacing="2.5">
    ECOMMERCE IMAGE STUDIO
  </text>
  <path d="M186 140H491" stroke="#C7DDEC" stroke-width="3" stroke-linecap="round"/>
  <path d="M186 140H306" stroke="#15B7D7" stroke-width="3" stroke-linecap="round"/>
</svg>
